<?xml version="1.0" encoding="UTF-8" standalone="no"?>
<!-- Created with Inkscape (http://www.inkscape.org/) -->

<svg
   width="109.999mm"
   height="164.946mm"
   viewBox="0 0 109.999 164.94605"
   version="1.1"
   id="svg1"
   inkscape:version="1.3 (0e150ed6c4, 2023-07-21)"
   sodipodi:docname="aos.svg"
   xmlns:inkscape="http://www.inkscape.org/namespaces/inkscape"
   xmlns:sodipodi="http://sodipodi.sourceforge.net/DTD/sodipodi-0.dtd"
   xmlns="http://www.w3.org/2000/svg"
   xmlns:svg="http://www.w3.org/2000/svg">
  <sodipodi:namedview
     id="namedview1"
     pagecolor="#ffffff"
     bordercolor="#000000"
     borderopacity="0.25"
     inkscape:showpageshadow="2"
     inkscape:pageopacity="0.0"
     inkscape:pagecheckerboard="0"
     inkscape:deskcolor="#d1d1d1"
     inkscape:document-units="mm"
     inkscape:zoom="1.1533985"
     inkscape:cx="-268.77094"
     inkscape:cy="400.1219"
     inkscape:window-width="3840"
     inkscape:window-height="2066"
     inkscape:window-x="2293"
     inkscape:window-y="-11"
     inkscape:window-maximized="1"
     inkscape:current-layer="layer1" />
  <defs
     id="defs1">
    <inkscape:path-effect
       effect="fillet_chamfer"
       id="path-effect2"
       is_visible="true"
       lpeversion="1"
       nodesatellites_param="F,0,0,1,0,3.4473164,0,1 @ F,0,0,1,0,1.244393,0,1 @ F,0,0,1,0,1.3426365,0,1 @ F,0,0,1,0,3.4752407,0,1 @ F,0,0,1,0,1.352478,0,1 @ F,0,0,1,0,1.8334989,0,1"
       radius="0"
       unit="px"
       method="auto"
       mode="F"
       chamfer_steps="1"
       flexible="false"
       use_knot_distance="true"
       apply_no_radius="true"
       apply_with_radius="true"
       only_selected="false"
       hide_knots="false" />
    <inkscape:path-effect
       effect="fillet_chamfer"
       id="path-effect1"
       is_visible="true"
       lpeversion="1"
       nodesatellites_param="F,0,0,1,0,43.361553,0,1 @ F,0,0,1,0,39.688152,0,1 @ F,0,0,1,0,39.688152,0,1 @ F,0,0,1,0,43.361553,0,1"
       radius="0"
       unit="px"
       method="auto"
       mode="F"
       chamfer_steps="1"
       flexible="false"
       use_knot_distance="true"
       apply_no_radius="true"
       apply_with_radius="true"
       only_selected="false"
       hide_knots="false" />
  </defs>
  <g
     inkscape:label="Layer 1"
     inkscape:groupmode="layer"
     id="layer1"
     transform="translate(-59.163877,-38.91286)">
    <path
       style="fill:none;stroke:#000000;stroke-width:9.77579;stroke-dasharray:none;stroke-opacity:1"
       id="rect1"
       width="83.049706"
       height="124.89896"
       x="61.638447"
       y="48.337521"
       inkscape:path-effect="#path-effect1"
       sodipodi:type="rect"
       d="m 105,48.337521 h 0 a 39.688152,39.688152 45 0 1 39.68815,39.688152 V 133.54832 A 39.688152,39.688152 135 0 1 105,173.23648 h 0 A 43.361553,43.361553 45 0 1 61.638447,129.87492 V 91.699074 A 43.361553,43.361553 135 0 1 105,48.337521 Z"
       transform="matrix(0.99940095,0,0,1.0541548,11.061878,2.9217019)" />
    <path
       id="text1"
       style="font-size:19.7556px;font-family:Arial;-inkscape-font-specification:Arial;fill:#000000;fill-opacity:1;stroke:none;stroke-width:2.4751;stroke-opacity:1"
       d="m 105.7072,59.118437 0.19735,8.425626 a 0.99272278,0.99272278 140.07685 0 1 -1.19029,0.996056 l -2.49737,-0.507891 a 0.79709434,0.79709434 132.19219 0 0 -0.92066,1.015631 l 4.32224,14.039986 a 0.49900061,0.49900061 171.05998 0 0 0.97587,-0.153516 l -0.11311,-8.428068 a 1.0203731,1.0203731 142.19846 0 1 1.28722,-0.998529 l 2.4235,0.656897 a 0.98247921,0.98247921 133.35044 0 0 1.18893,-1.259438 l -4.66256,-13.963285 a 0.51899311,0.51899311 170.09662 0 0 -1.01112,0.176531 z"
       inkscape:path-effect="#path-effect2"
       inkscape:original-d="m 105.62647,55.672066 0.30722,13.116049 -5.0325,-1.023462 5.73979,18.644604 -0.1779,-13.255352 5.49851,1.490392 z"
       transform="matrix(2.4605118,0,0,2.4605118,-147.5027,-77.823309)" />
  </g>
</svg>
